<mxfile host="65bd71144e">
    <diagram name="Page-1" id="Qp7W10_xB9x8O0yGNZzA">
        <mxGraphModel dx="2735" dy="662" grid="1" gridSize="10" guides="1" tooltips="1" connect="1" arrows="1" fold="1" page="1" pageScale="1" pageWidth="827" pageHeight="1169" math="0" shadow="0">
            <root>
                <mxCell id="0"/>
                <mxCell id="1" parent="0"/>
                <mxCell id="42" value="" style="rounded=0;whiteSpace=wrap;html=1;fillColor=none;dashed=1;" parent="1" vertex="1">
                    <mxGeometry x="620" y="240" width="940" height="200" as="geometry"/>
                </mxCell>
                <mxCell id="Z_QKIm1T5DIxartJagjV-68" value="" style="rounded=0;whiteSpace=wrap;html=1;dashed=1;fillColor=none;" parent="1" vertex="1">
                    <mxGeometry x="80" y="480" width="480" height="280" as="geometry"/>
                </mxCell>
                <mxCell id="Z_QKIm1T5DIxartJagjV-4" value="" style="group;dashed=1;" parent="1" vertex="1" connectable="0">
                    <mxGeometry x="320" y="40" width="240" height="210" as="geometry"/>
                </mxCell>
                <mxCell id="Z_QKIm1T5DIxartJagjV-2" value="" style="rounded=0;whiteSpace=wrap;html=1;fillColor=none;dashed=1;" parent="Z_QKIm1T5DIxartJagjV-4" vertex="1">
                    <mxGeometry width="240" height="210" as="geometry"/>
                </mxCell>
                <mxCell id="Z_QKIm1T5DIxartJagjV-3" value="infrastructure" style="text;html=1;strokeColor=none;fillColor=none;align=center;verticalAlign=middle;whiteSpace=wrap;rounded=0;" parent="Z_QKIm1T5DIxartJagjV-4" vertex="1">
                    <mxGeometry x="60" width="120" height="30" as="geometry"/>
                </mxCell>
                <mxCell id="Z_QKIm1T5DIxartJagjV-1" value="MyStack.ts" style="rounded=0;whiteSpace=wrap;html=1;" parent="Z_QKIm1T5DIxartJagjV-4" vertex="1">
                    <mxGeometry x="60" y="80" width="120" height="40" as="geometry"/>
                </mxCell>
                <mxCell id="Z_QKIm1T5DIxartJagjV-42" value="" style="group" parent="1" vertex="1" connectable="0">
                    <mxGeometry x="320" y="520" width="200" height="200" as="geometry"/>
                </mxCell>
                <mxCell id="Z_QKIm1T5DIxartJagjV-31" value="" style="rounded=0;whiteSpace=wrap;html=1;fillColor=none;" parent="Z_QKIm1T5DIxartJagjV-42" vertex="1">
                    <mxGeometry width="200" height="200" as="geometry"/>
                </mxCell>
                <mxCell id="Z_QKIm1T5DIxartJagjV-34" value="ui.tsx" style="rounded=0;whiteSpace=wrap;html=1;" parent="Z_QKIm1T5DIxartJagjV-42" vertex="1">
                    <mxGeometry x="60" y="120" width="80" height="40" as="geometry"/>
                </mxCell>
                <mxCell id="Z_QKIm1T5DIxartJagjV-36" value="router.ts" style="rounded=0;whiteSpace=wrap;html=1;" parent="Z_QKIm1T5DIxartJagjV-42" vertex="1">
                    <mxGeometry x="40" y="40" width="120" height="40" as="geometry"/>
                </mxCell>
                <mxCell id="Z_QKIm1T5DIxartJagjV-37" value="greeting" style="text;html=1;strokeColor=none;fillColor=none;align=center;verticalAlign=middle;whiteSpace=wrap;rounded=0;" parent="Z_QKIm1T5DIxartJagjV-42" vertex="1">
                    <mxGeometry x="41.879999999999995" y="0.0038095238096502726" width="116.25" height="31.42857142857143" as="geometry"/>
                </mxCell>
                <mxCell id="Z_QKIm1T5DIxartJagjV-43" value="" style="group" parent="1" vertex="1" connectable="0">
                    <mxGeometry x="40" y="280" width="200" height="120" as="geometry"/>
                </mxCell>
                <mxCell id="Z_QKIm1T5DIxartJagjV-6" value="" style="rounded=0;whiteSpace=wrap;html=1;fillColor=none;container=0;" parent="Z_QKIm1T5DIxartJagjV-43" vertex="1">
                    <mxGeometry width="200" height="120" as="geometry"/>
                </mxCell>
                <mxCell id="Z_QKIm1T5DIxartJagjV-7" value="web" style="text;html=1;strokeColor=none;fillColor=none;align=center;verticalAlign=middle;whiteSpace=wrap;rounded=0;container=0;" parent="Z_QKIm1T5DIxartJagjV-43" vertex="1">
                    <mxGeometry x="40" width="120" height="30" as="geometry"/>
                </mxCell>
                <mxCell id="Z_QKIm1T5DIxartJagjV-8" value="App.tsx" style="rounded=0;whiteSpace=wrap;html=1;container=0;" parent="Z_QKIm1T5DIxartJagjV-43" vertex="1">
                    <mxGeometry x="40" y="40" width="120" height="40" as="geometry"/>
                </mxCell>
                <mxCell id="Z_QKIm1T5DIxartJagjV-44" style="edgeStyle=orthogonalEdgeStyle;orthogonalLoop=1;jettySize=auto;html=1;exitX=0.5;exitY=1;exitDx=0;exitDy=0;rounded=1;entryX=0;entryY=0.5;entryDx=0;entryDy=0;" parent="1" source="Z_QKIm1T5DIxartJagjV-8" target="Z_QKIm1T5DIxartJagjV-34" edge="1">
                    <mxGeometry relative="1" as="geometry">
                        <Array as="points">
                            <mxPoint x="140" y="660"/>
                        </Array>
                    </mxGeometry>
                </mxCell>
                <mxCell id="Z_QKIm1T5DIxartJagjV-45" style="edgeStyle=orthogonalEdgeStyle;orthogonalLoop=1;jettySize=auto;html=1;rounded=1;entryX=1;entryY=0.25;entryDx=0;entryDy=0;" parent="1" source="29" target="Z_QKIm1T5DIxartJagjV-36" edge="1">
                    <mxGeometry relative="1" as="geometry">
                        <Array as="points">
                            <mxPoint x="750" y="570"/>
                        </Array>
                        <mxPoint x="480" y="570" as="targetPoint"/>
                        <mxPoint x="730" y="360" as="sourcePoint"/>
                    </mxGeometry>
                </mxCell>
                <mxCell id="Z_QKIm1T5DIxartJagjV-61" style="edgeStyle=orthogonalEdgeStyle;orthogonalLoop=1;jettySize=auto;html=1;rounded=1;" parent="1" source="Z_QKIm1T5DIxartJagjV-34" target="Z_QKIm1T5DIxartJagjV-59" edge="1">
                    <mxGeometry relative="1" as="geometry">
                        <Array as="points">
                            <mxPoint x="420" y="740"/>
                        </Array>
                    </mxGeometry>
                </mxCell>
                <mxCell id="Z_QKIm1T5DIxartJagjV-62" style="edgeStyle=orthogonalEdgeStyle;rounded=1;orthogonalLoop=1;jettySize=auto;html=1;" parent="1" source="Z_QKIm1T5DIxartJagjV-1" target="6" edge="1">
                    <mxGeometry relative="1" as="geometry">
                        <mxPoint x="1360" y="190" as="targetPoint"/>
                        <Array as="points">
                            <mxPoint x="450" y="180"/>
                            <mxPoint x="940" y="180"/>
                        </Array>
                    </mxGeometry>
                </mxCell>
                <mxCell id="Z_QKIm1T5DIxartJagjV-64" style="edgeStyle=orthogonalEdgeStyle;orthogonalLoop=1;jettySize=auto;html=1;rounded=1;" parent="1" source="Z_QKIm1T5DIxartJagjV-1" target="Z_QKIm1T5DIxartJagjV-6" edge="1">
                    <mxGeometry relative="1" as="geometry">
                        <Array as="points">
                            <mxPoint x="430" y="180"/>
                            <mxPoint x="140" y="180"/>
                        </Array>
                    </mxGeometry>
                </mxCell>
                <mxCell id="Z_QKIm1T5DIxartJagjV-69" value="features" style="text;html=1;strokeColor=none;fillColor=none;align=center;verticalAlign=middle;whiteSpace=wrap;rounded=0;" parent="1" vertex="1">
                    <mxGeometry x="290" y="480" width="60" height="30" as="geometry"/>
                </mxCell>
                <mxCell id="Io0_HdBwrpwHDb_zhjEs-1" style="edgeStyle=orthogonalEdgeStyle;orthogonalLoop=1;jettySize=auto;html=1;exitX=1;exitY=0.75;exitDx=0;exitDy=0;rounded=1;entryX=0.25;entryY=0;entryDx=0;entryDy=0;" parent="1" source="Z_QKIm1T5DIxartJagjV-36" target="Z_QKIm1T5DIxartJagjV-18" edge="1">
                    <mxGeometry relative="1" as="geometry">
                        <Array as="points">
                            <mxPoint x="630" y="590"/>
                        </Array>
                    </mxGeometry>
                </mxCell>
                <mxCell id="Io0_HdBwrpwHDb_zhjEs-20" style="edgeStyle=orthogonalEdgeStyle;rounded=1;orthogonalLoop=1;jettySize=auto;html=1;entryX=0;entryY=0.5;entryDx=0;entryDy=0;" parent="1" source="Z_QKIm1T5DIxartJagjV-8" target="29" edge="1">
                    <mxGeometry relative="1" as="geometry">
                        <Array as="points">
                            <mxPoint x="270" y="340"/>
                            <mxPoint x="270" y="340"/>
                        </Array>
                        <mxPoint x="720" y="330" as="targetPoint"/>
                    </mxGeometry>
                </mxCell>
                <mxCell id="Z_QKIm1T5DIxartJagjV-25" style="edgeStyle=orthogonalEdgeStyle;rounded=1;orthogonalLoop=1;jettySize=auto;html=1;entryX=0.75;entryY=0;entryDx=0;entryDy=0;" parent="1" source="29" target="Z_QKIm1T5DIxartJagjV-18" edge="1">
                    <mxGeometry relative="1" as="geometry">
                        <mxPoint x="840" y="460" as="sourcePoint"/>
                        <Array as="points">
                            <mxPoint x="770" y="590"/>
                            <mxPoint x="670" y="590"/>
                        </Array>
                    </mxGeometry>
                </mxCell>
                <mxCell id="45" value="api" style="text;html=1;strokeColor=none;fillColor=none;align=center;verticalAlign=middle;whiteSpace=wrap;rounded=0;container=0;" parent="1" vertex="1">
                    <mxGeometry x="1030" y="240" width="120" height="30" as="geometry"/>
                </mxCell>
                <mxCell id="46" value="" style="group" parent="1" vertex="1" connectable="0">
                    <mxGeometry x="320" y="780" width="440" height="200" as="geometry"/>
                </mxCell>
                <mxCell id="Z_QKIm1T5DIxartJagjV-71" value="shared" style="text;html=1;strokeColor=none;fillColor=none;align=center;verticalAlign=middle;whiteSpace=wrap;rounded=0;" parent="46" vertex="1">
                    <mxGeometry x="160" width="60" height="30" as="geometry"/>
                </mxCell>
                <mxCell id="Z_QKIm1T5DIxartJagjV-72" value="" style="group" parent="46" vertex="1" connectable="0">
                    <mxGeometry y="40" width="440" height="160" as="geometry"/>
                </mxCell>
                <mxCell id="Z_QKIm1T5DIxartJagjV-57" value="" style="rounded=0;whiteSpace=wrap;html=1;fillColor=none;container=0;fontStyle=0" parent="Z_QKIm1T5DIxartJagjV-72" vertex="1">
                    <mxGeometry width="200" height="120" as="geometry"/>
                </mxCell>
                <mxCell id="Z_QKIm1T5DIxartJagjV-58" value="ui" style="text;html=1;strokeColor=none;fillColor=none;align=center;verticalAlign=middle;whiteSpace=wrap;rounded=0;container=0;fontStyle=0" parent="Z_QKIm1T5DIxartJagjV-72" vertex="1">
                    <mxGeometry x="40" width="120" height="30" as="geometry"/>
                </mxCell>
                <mxCell id="Z_QKIm1T5DIxartJagjV-59" value="buttons.tsx" style="rounded=0;whiteSpace=wrap;html=1;container=0;fontStyle=0" parent="Z_QKIm1T5DIxartJagjV-72" vertex="1">
                    <mxGeometry x="40" y="40" width="120" height="40" as="geometry"/>
                </mxCell>
                <mxCell id="Z_QKIm1T5DIxartJagjV-70" value="" style="rounded=0;whiteSpace=wrap;html=1;dashed=1;fillColor=none;" parent="Z_QKIm1T5DIxartJagjV-72" vertex="1">
                    <mxGeometry x="-40" y="-40" width="480" height="200" as="geometry"/>
                </mxCell>
                <mxCell id="52" value="" style="group" parent="Z_QKIm1T5DIxartJagjV-72" vertex="1" connectable="0">
                    <mxGeometry x="250" width="160" height="120" as="geometry"/>
                </mxCell>
                <mxCell id="Io0_HdBwrpwHDb_zhjEs-17" value="" style="rounded=0;whiteSpace=wrap;html=1;fillColor=none;" parent="52" vertex="1">
                    <mxGeometry width="160" height="120" as="geometry"/>
                </mxCell>
                <mxCell id="Z_QKIm1T5DIxartJagjV-18" value="instance.ts" style="rounded=0;whiteSpace=wrap;html=1;" parent="52" vertex="1">
                    <mxGeometry x="40" y="40" width="80" height="40" as="geometry"/>
                </mxCell>
                <mxCell id="37" value="trpc-instance" style="text;html=1;strokeColor=none;fillColor=none;align=center;verticalAlign=middle;whiteSpace=wrap;rounded=0;" parent="52" vertex="1">
                    <mxGeometry x="21.87000000000012" y="0.0038095238096502726" width="116.25" height="31.42857142857143" as="geometry"/>
                </mxCell>
                <mxCell id="48" value="" style="group" parent="1" vertex="1" connectable="0">
                    <mxGeometry x="660" y="280" width="400" height="120" as="geometry"/>
                </mxCell>
                <mxCell id="26" value="" style="rounded=0;whiteSpace=wrap;html=1;fillColor=none;" parent="48" vertex="1">
                    <mxGeometry width="400" height="120" as="geometry"/>
                </mxCell>
                <mxCell id="29" value="appRouter.ts" style="rounded=0;whiteSpace=wrap;html=1;" parent="48" vertex="1">
                    <mxGeometry x="40" y="40" width="120" height="40" as="geometry"/>
                </mxCell>
                <mxCell id="30" value="trpc" style="text;html=1;strokeColor=none;fillColor=none;align=center;verticalAlign=middle;whiteSpace=wrap;rounded=0;" parent="48" vertex="1">
                    <mxGeometry x="141.87" y="0.0038095238096502726" width="116.25" height="31.42857142857143" as="geometry"/>
                </mxCell>
                <mxCell id="6" value="awsLambdaHandler.ts" style="rounded=0;whiteSpace=wrap;html=1;" parent="48" vertex="1">
                    <mxGeometry x="200" y="40" width="160" height="40" as="geometry"/>
                </mxCell>
                <mxCell id="35" style="edgeStyle=none;html=1;" parent="48" source="6" target="29" edge="1">
                    <mxGeometry relative="1" as="geometry"/>
                </mxCell>
            </root>
        </mxGraphModel>
    </diagram>
</mxfile>